<?xml version="1.0" encoding="utf-8"?>
<!-- Generator: Adobe Illustrator 16.0.3, SVG Export Plug-In . SVG Version: 6.00 Build 0)  -->
<!DOCTYPE svg PUBLIC "-//W3C//DTD SVG 1.1//EN" "http://www.w3.org/Graphics/SVG/1.1/DTD/svg11.dtd">
<svg version="1.1" id="圖層_1" xmlns="http://www.w3.org/2000/svg" xmlns:xlink="http://www.w3.org/1999/xlink" x="0px" y="0px"
	 width="297.065px" height="37.869px" viewBox="0 0 297.065 37.869" enable-background="new 0 0 297.065 37.869"
	 xml:space="preserve">
<g>
	<path fill="#FFFFFF" d="M27.524,37.869H0l19.259-19.177c0.036-0.029,3.917-3.3,4.361-7.114c0.008-0.425,0.02-2.542,0.03-4.261
		c0.022-4.226,0.026-4.252,0.04-4.405L23.871,1h22.205l0.006,2.105c0.004,1.744,0.018,7.468,0.004,7.875
		c-0.006,0.199-0.006,0.414-0.005,0.642c0.009,2.143,0.021,5.729-4.396,10.496L27.524,37.869z M10.219,33.647h15.424l12.925-14.376
		c3.308-3.569,3.299-5.822,3.292-7.633c-0.001-0.284-0.002-0.549,0.007-0.799c0.007-0.277,0.004-3.072-0.001-5.617H27.884
		c-0.005,0.675-0.009,1.43-0.013,2.118c-0.024,4.408-0.028,4.437-0.043,4.595c-0.554,5.264-5.089,9.335-5.797,9.943L10.219,33.647z"
		/>
</g>
<g>
	<path fill="#FFFFFF" d="M76.19,22.708h-6.143v4.347h7.363v3.113h-11.41V12.735h11.422v3.113h-7.375v3.748h6.143V22.708z"/>
	<path fill="#FFFFFF" d="M94.927,27.761c-0.606,0.734-1.461,1.361-2.563,1.88c-1.102,0.52-2.519,0.778-4.25,0.778
		c-2.163,0-3.92-0.663-5.269-1.987c-1.349-1.325-2.023-3.045-2.023-5.16v-3.641c0-2.099,0.656-3.815,1.97-5.148
		c1.313-1.333,3.003-2,5.07-2c2.228,0,3.909,0.497,5.047,1.491c1.138,0.994,1.687,2.353,1.646,4.077l-0.024,0.072h-3.795
		c0-0.854-0.228-1.488-0.683-1.903s-1.142-0.623-2.06-0.623c-0.941,0-1.7,0.372-2.274,1.114c-0.575,0.742-0.862,1.708-0.862,2.897
		v3.665c0,1.213,0.285,2.188,0.855,2.927c0.571,0.738,1.371,1.107,2.401,1.107c0.742,0,1.327-0.06,1.754-0.179
		c0.427-0.121,0.764-0.279,1.012-0.479v-3.113h-3.089v-2.682h7.136V27.761z"/>
	<path fill="#FFFFFF" d="M112.598,27.761c-0.606,0.734-1.461,1.361-2.563,1.88c-1.102,0.52-2.519,0.778-4.25,0.778
		c-2.163,0-3.92-0.663-5.269-1.987c-1.349-1.325-2.023-3.045-2.023-5.16v-3.641c0-2.099,0.656-3.815,1.97-5.148
		c1.313-1.333,3.003-2,5.07-2c2.228,0,3.909,0.497,5.047,1.491c1.138,0.994,1.687,2.353,1.646,4.077l-0.024,0.072h-3.795
		c0-0.854-0.228-1.488-0.683-1.903s-1.142-0.623-2.06-0.623c-0.941,0-1.7,0.372-2.274,1.114c-0.575,0.742-0.862,1.708-0.862,2.897
		v3.665c0,1.213,0.285,2.188,0.855,2.927c0.571,0.738,1.371,1.107,2.401,1.107c0.742,0,1.327-0.06,1.754-0.179
		c0.427-0.121,0.764-0.279,1.012-0.479v-3.113h-3.089v-2.682h7.136V27.761z"/>
	<path fill="#FFFFFF" d="M130.521,24.038h0.071l2.107-11.303h4.095l-3.999,17.434h-3.808l-2.934-10.765h-0.071l-2.91,10.765h-3.808
		l-4.011-17.434h4.107l2.106,11.314l0.072,0.012l2.957-11.326h3.054L130.521,24.038z"/>
	<path fill="#FFFFFF" d="M148.456,26.78h-5.185l-1.006,3.389h-4.263l5.688-17.434h2.167v0.012l0.013-0.012h2.167l5.699,17.434
		h-4.263L148.456,26.78z M144.205,23.667h3.317l-1.629-5.412h-0.071L144.205,23.667z"/>
	<path fill="#FFFFFF" d="M164.954,25.546c0-0.622-0.203-1.1-0.61-1.431c-0.407-0.332-1.146-0.685-2.215-1.061
		c-2.164-0.701-3.771-1.45-4.819-2.244c-1.05-0.794-1.575-1.938-1.575-3.431c0-1.46,0.611-2.642,1.832-3.544
		c1.222-0.902,2.773-1.353,4.658-1.353c1.987,0,3.588,0.465,4.801,1.395c1.213,0.93,1.8,2.241,1.76,3.933l-0.023,0.072h-3.928
		c0-0.822-0.223-1.419-0.67-1.79s-1.122-0.557-2.023-0.557c-0.734,0-1.313,0.18-1.736,0.539c-0.423,0.359-0.635,0.802-0.635,1.329
		c0,0.511,0.218,0.92,0.652,1.228c0.436,0.307,1.247,0.692,2.437,1.155c2.02,0.599,3.549,1.329,4.586,2.191
		c1.038,0.862,1.557,2.044,1.557,3.544c0,1.533-0.599,2.732-1.796,3.598c-1.197,0.867-2.786,1.3-4.766,1.3
		c-1.972,0-3.642-0.465-5.011-1.396c-1.369-0.93-2.033-2.393-1.993-4.388l0.023-0.071h3.939c0,1.014,0.249,1.734,0.748,2.16
		c0.499,0.428,1.264,0.641,2.293,0.641c0.847,0,1.477-0.167,1.892-0.502C164.746,26.528,164.954,26.089,164.954,25.546z"/>
	<path fill="#FFFFFF" d="M186.721,30.168h-4.035v-7.018h-6.454v7.018h-4.047V12.735h4.047v7.304h6.454v-7.304h4.035V30.168z"/>
</g>
<g>
	<path fill="#FFFFFF" d="M200.041,30.168v-9.901h3.053c1.033,0,1.887,0.387,2.563,1.159c0.676,0.773,1.014,1.765,1.014,2.975v1.639
		c0,1.215-0.338,2.206-1.014,2.976c-0.676,0.768-1.529,1.152-2.563,1.152H200.041z M201.957,21.77v6.902h1.137
		c0.494,0,0.893-0.245,1.197-0.734c0.303-0.49,0.455-1.122,0.455-1.897v-1.652c0-0.767-0.152-1.394-0.455-1.884
		c-0.305-0.489-0.703-0.734-1.197-0.734H201.957z"/>
	<path fill="#FFFFFF" d="M213.796,25.795h-3.026v2.877h3.625v1.496h-5.542v-9.901h5.528v1.502h-3.611v2.529h3.026V25.795z"/>
	<path fill="#FFFFFF" d="M220.812,27.598c0-0.395-0.101-0.707-0.303-0.936c-0.201-0.229-0.563-0.452-1.084-0.67
		c-1.016-0.357-1.779-0.764-2.292-1.217s-0.769-1.088-0.769-1.904c0-0.811,0.293-1.472,0.878-1.982
		c0.584-0.51,1.33-0.765,2.236-0.765c0.961,0,1.734,0.272,2.319,0.816c0.584,0.544,0.868,1.274,0.85,2.189l-0.014,0.04h-1.863
		c0-0.512-0.114-0.9-0.343-1.166c-0.229-0.265-0.557-0.397-0.983-0.397c-0.367,0-0.652,0.122-0.856,0.364s-0.306,0.545-0.306,0.908
		c0,0.335,0.115,0.611,0.347,0.828c0.231,0.219,0.628,0.457,1.189,0.715c0.957,0.317,1.681,0.719,2.173,1.203
		c0.492,0.485,0.738,1.139,0.738,1.959c0,0.848-0.288,1.514-0.864,1.998c-0.575,0.486-1.339,0.729-2.291,0.729
		c-0.938,0-1.741-0.262-2.407-0.785s-0.988-1.32-0.966-2.391l0.014-0.041h1.87c0,0.621,0.126,1.068,0.377,1.34
		c0.252,0.271,0.622,0.408,1.112,0.408c0.412,0,0.722-0.113,0.928-0.34S220.812,27.974,220.812,27.598z"/>
	<path fill="#FFFFFF" d="M226.829,30.168h-1.911v-9.901h1.911V30.168z"/>
	<path fill="#FFFFFF" d="M235.933,28.862c-0.281,0.395-0.688,0.734-1.221,1.021c-0.533,0.286-1.221,0.429-2.063,0.429
		c-1.07,0-1.928-0.313-2.574-0.936c-0.646-0.623-0.969-1.508-0.969-2.654v-3.006c0-1.143,0.313-2.026,0.941-2.652
		c0.628-0.625,1.459-0.938,2.492-0.938c1.079,0,1.893,0.255,2.441,0.765c0.548,0.51,0.813,1.237,0.796,2.179l-0.014,0.041h-1.803
		c0-0.517-0.113-0.893-0.34-1.129c-0.227-0.235-0.568-0.354-1.026-0.354c-0.494,0-0.88,0.172-1.156,0.518
		c-0.276,0.344-0.415,0.863-0.415,1.557v3.02c0,0.707,0.141,1.232,0.422,1.576c0.281,0.346,0.683,0.518,1.204,0.518
		c0.371,0,0.664-0.045,0.877-0.133s0.376-0.205,0.489-0.35v-2h-1.51v-1.326h3.428V28.862z"/>
	<path fill="#FFFFFF" d="M245.166,30.168h-1.918l-3.142-6.317l-0.041,0.007v6.311h-1.917v-9.901h1.917l3.142,6.324l0.041-0.007
		v-6.317h1.918V30.168z"/>
	<path fill="#FFFFFF" d="M255.806,27.598c0-0.395-0.101-0.707-0.303-0.936c-0.201-0.229-0.563-0.452-1.084-0.67
		c-1.016-0.357-1.779-0.764-2.292-1.217s-0.769-1.088-0.769-1.904c0-0.811,0.293-1.472,0.878-1.982
		c0.584-0.51,1.33-0.765,2.236-0.765c0.961,0,1.734,0.272,2.319,0.816c0.584,0.544,0.868,1.274,0.85,2.189l-0.014,0.04h-1.863
		c0-0.512-0.114-0.9-0.343-1.166c-0.229-0.265-0.557-0.397-0.983-0.397c-0.367,0-0.652,0.122-0.856,0.364s-0.306,0.545-0.306,0.908
		c0,0.335,0.115,0.611,0.347,0.828c0.231,0.219,0.628,0.457,1.189,0.715c0.957,0.317,1.681,0.719,2.173,1.203
		c0.492,0.485,0.738,1.139,0.738,1.959c0,0.848-0.288,1.514-0.864,1.998c-0.575,0.486-1.339,0.729-2.291,0.729
		c-0.938,0-1.741-0.262-2.407-0.785s-0.988-1.32-0.966-2.391l0.014-0.041h1.87c0,0.621,0.126,1.068,0.377,1.34
		c0.252,0.271,0.622,0.408,1.112,0.408c0.412,0,0.722-0.113,0.928-0.34S255.806,27.974,255.806,27.598z"/>
	<path fill="#FFFFFF" d="M265.76,21.77h-2.325v8.398h-1.924V21.77h-2.265v-1.502h6.514V21.77z"/>
	<path fill="#FFFFFF" d="M274.442,20.268v6.466c0,1.124-0.323,2.001-0.969,2.632c-0.646,0.63-1.488,0.945-2.526,0.945
		c-1.033,0-1.872-0.316-2.516-0.949c-0.644-0.632-0.966-1.508-0.966-2.628v-6.466h1.911v6.466c0,0.676,0.141,1.191,0.421,1.548
		c0.281,0.355,0.664,0.533,1.149,0.533c0.494,0,0.881-0.177,1.159-0.53c0.279-0.354,0.419-0.87,0.419-1.551v-6.466H274.442z"/>
	<path fill="#FFFFFF" d="M276.727,30.168v-9.901h3.053c1.034,0,1.888,0.387,2.563,1.159c0.676,0.773,1.014,1.765,1.014,2.975v1.639
		c0,1.215-0.338,2.206-1.014,2.976c-0.676,0.768-1.529,1.152-2.563,1.152H276.727z M278.644,21.77v6.902h1.136
		c0.494,0,0.894-0.245,1.197-0.734c0.304-0.49,0.455-1.122,0.455-1.897v-1.652c0-0.767-0.151-1.394-0.455-1.884
		c-0.304-0.489-0.703-0.734-1.197-0.734H278.644z"/>
	<path fill="#FFFFFF" d="M287.558,30.168h-1.911v-9.901h1.911V30.168z"/>
	<path fill="#FFFFFF" d="M297.056,26.605c0,1.165-0.329,2.073-0.986,2.727s-1.532,0.979-2.625,0.979s-1.965-0.326-2.617-0.979
		c-0.653-0.653-0.979-1.562-0.979-2.727v-2.761c0-1.16,0.325-2.07,0.976-2.73s1.522-0.989,2.614-0.989
		c1.093,0,1.969,0.33,2.628,0.989c0.66,0.66,0.99,1.57,0.99,2.73V26.605z M295.145,23.824c0-0.721-0.146-1.265-0.438-1.632
		c-0.293-0.367-0.715-0.551-1.269-0.551c-0.558,0-0.977,0.183-1.258,0.547c-0.281,0.365-0.422,0.91-0.422,1.636v2.781
		c0,0.734,0.142,1.285,0.426,1.652c0.283,0.367,0.703,0.551,1.261,0.551s0.98-0.184,1.269-0.551s0.432-0.918,0.432-1.652V23.824z"/>
</g>
</svg>
