<?xml version="1.0" encoding="utf-8"?>
<!-- Generator: Adobe Illustrator 16.0.3, SVG Export Plug-In . SVG Version: 6.00 Build 0)  -->
<!DOCTYPE svg PUBLIC "-//W3C//DTD SVG 1.1//EN" "http://www.w3.org/Graphics/SVG/1.1/DTD/svg11.dtd">
<svg version="1.1" id="圖層_1" xmlns="http://www.w3.org/2000/svg" xmlns:xlink="http://www.w3.org/1999/xlink" x="0px" y="0px"
	 width="186.917px" height="36.787px" viewBox="0 0.082 186.917 36.787" enable-background="new 0 0.082 186.917 36.787"
	 xml:space="preserve">
<g id="圖層_1_1_" display="none">
	<polygon display="inline" fill="#FFFFFF" stroke="#000000" stroke-width="0.3578" stroke-miterlimit="10" points="
		-230.333,275.702 -230.333,239.202 -273.333,239.202 -273.333,275.702 -273.22,275.702 -331.332,320.702 -307.608,320.702 
		-288.431,320.702 -230.319,275.702 	"/>
	
		<circle display="inline" fill="none" stroke="#000000" stroke-width="0.6307" stroke-miterlimit="10" cx="-344.833" cy="239.202" r="54"/>
	<path display="inline" fill="none" stroke="#000000" stroke-width="0.3226" stroke-miterlimit="10" d="M-273.333,258.903
		c0,0-2.867,16.348-15.095,28.574"/>
	<path display="inline" fill="none" stroke="#000000" stroke-width="0.2724" stroke-miterlimit="10" d="M-230.319,262.452
		c0,0-2.511,13.316-13.22,23.275"/>
</g>
<g id="圖層_2">
	<rect x="-127.833" y="216.528" fill="#B5B5B6" width="145" height="134"/>
	<path fill="#FFFFFF" stroke="#666464" stroke-width="0.9511" stroke-miterlimit="10" d="M-46.924,244.849h38.753
		c0,0,0.04,15.77,0.011,16.623c-0.139,4.217,1.085,10.836-8.185,20.836l-28.893,32.138h-45.778l33.027-32.908
		c0,0,9.854-8.123,10.926-18.32C-47.025,262.84-46.959,245.219-46.924,244.849z"/>
	<path fill="none" stroke="#666464" stroke-width="0.9511" stroke-miterlimit="10" d="M-319.345,275.929h38.753
		c0,0,0.04,15.771,0.011,16.622c-0.139,4.218,1.085,10.836-8.185,20.837l-28.893,32.138h-45.778l33.027-32.908
		c0,0,9.854-8.123,10.926-18.32C-319.446,293.921-319.38,276.3-319.345,275.929z"/>
	<g>
		<path fill="#C30D23" d="M-199.904,183.146h-58.675l41.057-40.881c0.076-0.063,8.348-7.035,9.295-15.166
			c0.018-0.906,0.043-5.42,0.064-9.084c0.051-9.008,0.057-9.064,0.087-9.39l0.386-4.075h47.336l0.012,4.488
			c0.009,3.719,0.037,15.92,0.008,16.788c-0.014,0.423-0.012,0.881-0.01,1.368c0.018,4.566,0.046,12.212-9.372,22.373
			L-199.904,183.146z M-236.796,174.146h32.881l27.552-30.646c7.052-7.608,7.033-12.412,7.019-16.272
			c-0.002-0.604-0.003-1.17,0.015-1.703c0.015-0.592,0.008-6.549-0.003-11.975h-29.805c-0.009,1.439-0.018,3.049-0.025,4.516
			c-0.055,9.396-0.061,9.457-0.094,9.795c-1.179,11.222-10.846,19.9-12.357,21.195L-236.796,174.146z"/>
	</g>
	<g>
		<path fill="#FFFFFF" d="M288.524,36.869H261l19.26-19.177c0.035-0.029,3.916-3.3,4.361-7.114c0.008-0.425,0.02-2.542,0.029-4.261
			c0.021-4.226,0.025-4.252,0.04-4.405L284.871,0h22.205l0.006,2.105c0.004,1.744,0.019,7.468,0.004,7.875
			c-0.006,0.199-0.006,0.414-0.004,0.642c0.008,2.143,0.021,5.729-4.396,10.496L288.524,36.869z M271.218,32.647h15.425
			l12.925-14.376c3.309-3.569,3.299-5.822,3.292-7.633c-0.001-0.284-0.002-0.549,0.007-0.799c0.008-0.277,0.004-3.072,0-5.617
			h-13.982c-0.004,0.675-0.008,1.43-0.012,2.118c-0.024,4.408-0.029,4.437-0.043,4.595c-0.555,5.264-5.09,9.335-5.797,9.942
			L271.218,32.647z"/>
	</g>
	<path fill="none" stroke="#000000" stroke-width="0.283" stroke-miterlimit="10" d="M-488.89,67.628h40
		c0,0,0.041,23.281,0.013,24.16c-0.14,4.354,1.118,11.186-8.449,21.507l-35.063,38.416h-47.249l39.333-39.213
		c0,0,10.167-8.386,11.271-18.911C-488.996,93.204-488.927,68.009-488.89,67.628z"/>
	<text transform="matrix(1 0 0 1 -570.1064 333.3301)" font-family="'Roboto-Black'" font-size="7.1341" letter-spacing="1">EGG</text>
	<text transform="matrix(1 0 0 1 -550.2783 333.3301)" font-family="'Roboto-Black'" font-size="7.1341"> </text>
	<text transform="matrix(1 0 0 1 -549.7861 333.3301)" font-family="'Roboto-Black'" font-size="7.1341" letter-spacing="1">WASH</text>
	
		<rect x="-127.833" y="350.528" fill="none" stroke="#666464" stroke-width="0.5822" stroke-miterlimit="10" width="145" height="61.833"/>
	
		<text transform="matrix(1 0 0 1 -597.1064 373.9268)" font-family="'GenShinGothic-Monospace-Regular'" font-size="14.8142" letter-spacing="2">蛋洗設計所</text>
	
		<text transform="matrix(1 0 0 1 -597.1064 410.1982)" fill="#898989" font-family="'GenShinGothic-Monospace-Normal'" font-size="11.0498">蛋洗設計所</text>
	<path fill="#B5B5B6" d="M-494.253,251.365l35.063-34.83h35.233c0,0,1.625-0.197,2.5,1.553
		c-1.795,1.795-26.688,31.688-30.125,35.125c-0.75-1.875-4-1.848-4-1.848H-494.253z"/>
	<g>
		<path fill="#727171" d="M-399.34,143.849h-38.612l0.197-0.197l31.869-31.771c0.089-0.074,8.22-6.87,9.099-15.252
			c0.017-0.181,0.04-5.83,0.061-10.814c0.025-6.078,0.044-10.072,0.058-10.219l0.011-0.104h32.628v0.115
			c0.002,0.77,0.034,18.873,0.011,19.578c-0.013,0.398-0.011,0.825-0.01,1.276c0.014,3.494,0.034,8.776-6.867,16.224
			L-399.34,143.849z M-437.397,143.619h37.955l28.377-31.091c6.84-7.381,6.819-12.606,6.806-16.065
			c-0.001-0.453-0.003-0.882,0.01-1.284c0.022-0.673-0.007-17.88-0.011-19.457h-32.185c-0.014,0.768-0.034,5.502-0.053,10.094
			c-0.026,6.447-0.046,10.685-0.062,10.836c-0.89,8.478-9.091,15.332-9.174,15.398L-437.397,143.619z"/>
	</g>
	<text transform="matrix(1 0 0 1 -570.1064 340.1387)" font-family="'Roboto-Light'" font-size="4.4342">design studio</text>
	<g>
		<path fill="#FFFFFF" stroke="#666464" stroke-width="1.063" stroke-miterlimit="10" d="M-12.999,352.354
			c0,4.695-3.808,8.505-8.504,8.505h-70.16c-4.696,0-8.504-3.81-8.504-8.505v-3.57c0-4.699,3.808-8.506,8.504-8.506h70.16
			c4.696,0,8.504,3.807,8.504,8.506V352.354z"/>
		
			<text transform="matrix(1 0 0 1 -88.9561 355.0107)" fill="#666464" font-family="'GenShinGothic-Monospace-Bold'" font-size="11.7461">蛋洗設計所</text>
	</g>
	<g>
		
			<text transform="matrix(1 0 0 1 -117.5361 387.0898)" fill="#666464" font-family="'Roboto-BoldCondensed'" font-size="23.3775" letter-spacing="3">EGG</text>
		
			<text transform="matrix(1 0 0 1 -65.27 387.0898)" fill="#666464" font-family="'Roboto-BoldCondensed'" font-size="23.3775" letter-spacing="-3"> </text>
		
			<text transform="matrix(1 0 0 1 -64.7739 387.0898)" fill="#666464" font-family="'Roboto-BoldCondensed'" font-size="23.3775" letter-spacing="3">WASH</text>
		
			<text transform="matrix(1 0 0 1 -117.5371 400.5449)" fill="#666464" font-family="'Roboto-Regular'" font-size="8.5517" letter-spacing="4">DESIGN STUDIO</text>
	</g>
	
		<rect x="-127.833" y="216.528" fill="none" stroke="#666464" stroke-width="1.9251" stroke-miterlimit="10" width="145" height="195.833"/>
	<rect x="74.667" y="269.062" fill="#C30D23" width="45.381" height="45.383"/>
	<rect x="74.667" y="344.355" fill="#F5F297" width="45.381" height="45.382"/>
	
		<text transform="matrix(1 0 0 1 -240.9561 410.1982)" fill="#C30D23" font-family="'GenShinGothic-Monospace-Bold'" font-size="11.7461">蛋洗設計所</text>
	<text transform="matrix(1 0 0 1 325.6128 29.168)" fill="#FFFFFF" font-family="'Roboto-Black'" font-size="24.5214">EGG</text>
	<text transform="matrix(1 0 0 1 376.1108 29.168)" fill="#FFFFFF" font-family="'Roboto-Black'" font-size="24.5214">WASH</text>
	
		<text transform="matrix(1 0 0 1 450.0913 29.168)" fill="#FFFFFF" font-family="'Roboto-Black'" font-size="31.3466" letter-spacing="4"> </text>
	<text transform="matrix(1 0 0 1 461.2788 29.168)" fill="#FFFFFF" font-family="'Roboto-BoldCondensed'" font-size="13.9258">DESIGN STUDIO</text>
	<g>
		<path fill="#FFFFFF" d="M27.741,36.869H0.278l19.215-19.134c0.036-0.029,3.908-3.293,4.352-7.098
			c0.008-0.425,0.02-2.537,0.031-4.252c0.021-4.217,0.025-4.243,0.039-4.395l0.181-1.908H46.25l0.006,2.101
			c0.004,1.74,0.018,7.451,0.004,7.857c-0.006,0.198-0.006,0.413-0.005,0.641c0.009,2.138,0.021,5.716-4.386,10.472L27.741,36.869z
			 M10.475,32.656h15.389l12.895-14.343c3.301-3.561,3.293-5.81,3.286-7.616c-0.002-0.283-0.003-0.548,0.007-0.797
			c0.006-0.277,0.003-3.065-0.003-5.604h-13.95c-0.005,0.674-0.009,1.427-0.013,2.113c-0.023,4.397-0.027,4.427-0.042,4.584
			c-0.553,5.252-5.078,9.314-5.784,9.92L10.475,32.656z"/>
	</g>
	<g enable-background="new    ">
		<path fill="#FFFFFF" d="M76.19,21.709h-6.142v4.346h7.363v3.113H66.001V11.734h11.423v3.113h-7.375v3.748h6.142V21.709z"/>
		<path fill="#FFFFFF" d="M94.437,26.762c-0.606,0.734-1.461,1.36-2.562,1.88c-1.102,0.519-2.519,0.777-4.251,0.777
			c-2.163,0-3.919-0.662-5.268-1.987c-1.349-1.325-2.023-3.045-2.023-5.16v-3.64c0-2.1,0.656-3.815,1.97-5.149
			c1.313-1.332,3.003-1.999,5.07-1.999c2.227,0,3.91,0.497,5.047,1.49c1.138,0.994,1.687,2.354,1.646,4.077l-0.023,0.072h-3.796
			c0-0.854-0.228-1.489-0.683-1.904s-1.142-0.622-2.06-0.622c-0.942,0-1.7,0.371-2.275,1.113s-0.862,1.708-0.862,2.897v3.664
			c0,1.213,0.285,2.189,0.856,2.928c0.57,0.738,1.371,1.107,2.4,1.107c0.743,0,1.327-0.061,1.754-0.18
			c0.427-0.12,0.764-0.279,1.012-0.479v-3.112h-3.089v-2.683h7.136V26.762z"/>
		<path fill="#FFFFFF" d="M111.618,26.762c-0.606,0.734-1.461,1.36-2.562,1.88c-1.102,0.519-2.52,0.777-4.252,0.777
			c-2.162,0-3.919-0.662-5.268-1.987c-1.35-1.325-2.023-3.045-2.023-5.16v-3.64c0-2.1,0.656-3.815,1.97-5.149
			c1.313-1.332,3.003-1.999,5.07-1.999c2.228,0,3.909,0.497,5.047,1.49c1.138,0.994,1.687,2.354,1.646,4.077l-0.024,0.072h-3.795
			c0-0.854-0.228-1.489-0.683-1.904s-1.142-0.622-2.06-0.622c-0.941,0-1.7,0.371-2.275,1.113c-0.574,0.742-0.861,1.708-0.861,2.897
			v3.664c0,1.213,0.285,2.189,0.855,2.928s1.371,1.107,2.4,1.107c0.743,0,1.328-0.061,1.755-0.18
			c0.427-0.12,0.765-0.279,1.012-0.479v-3.112h-3.089v-2.683h7.136V26.762z"/>
	</g>
	<g enable-background="new    ">
		<path fill="#FFFFFF" d="M130.521,23.038h0.072l2.107-11.304h4.094l-3.998,17.434h-3.809l-2.933-10.764h-0.072l-2.909,10.764
			h-3.808l-4.011-17.434h4.106l2.107,11.315l0.071,0.012l2.958-11.327h3.054L130.521,23.038z"/>
		<path fill="#FFFFFF" d="M146.96,25.779h-5.185l-1.006,3.389h-4.263l5.688-17.434h2.168v0.013l0.012-0.013h2.167l5.699,17.434
			h-4.263L146.96,25.779z M142.71,22.666h3.316l-1.629-5.411h-0.072L142.71,22.666z"/>
		<path fill="#FFFFFF" d="M162.478,24.546c0-0.622-0.203-1.1-0.611-1.431c-0.406-0.331-1.145-0.685-2.215-1.06
			c-2.162-0.702-3.77-1.45-4.818-2.245c-1.051-0.794-1.574-1.938-1.574-3.43c0-1.461,0.609-2.643,1.831-3.545
			c1.222-0.901,2.774-1.353,4.657-1.353c1.988,0,3.588,0.465,4.802,1.395c1.214,0.931,1.8,2.241,1.761,3.934l-0.024,0.072h-3.927
			c0-0.822-0.225-1.419-0.671-1.79c-0.447-0.372-1.122-0.558-2.023-0.558c-0.735,0-1.313,0.18-1.736,0.539s-0.635,0.803-0.635,1.329
			c0,0.511,0.218,0.92,0.653,1.228c0.435,0.308,1.246,0.692,2.436,1.155c2.02,0.599,3.549,1.329,4.586,2.191
			c1.037,0.861,1.557,2.043,1.557,3.544c0,1.532-0.599,2.731-1.796,3.598s-2.786,1.299-4.765,1.299
			c-1.973,0-3.643-0.465-5.012-1.395s-2.033-2.393-1.993-4.388l0.024-0.072h3.938c0,1.014,0.249,1.734,0.749,2.161
			c0.498,0.427,1.263,0.641,2.293,0.641c0.846,0,1.477-0.168,1.891-0.503C162.271,25.528,162.478,25.089,162.478,24.546z"/>
		<path fill="#FFFFFF" d="M183.263,29.168h-4.035v-7.017h-6.453v7.017h-4.047V11.734h4.047v7.304h6.453v-7.304h4.035V29.168z"/>
	</g>
	
		<text transform="matrix(1 0 0 1 189.0913 29.168)" fill="#FFFFFF" font-family="'Roboto-Black'" font-size="31.3466" letter-spacing="4"> </text>
</g>
</svg>
