<?xml version="1.0" encoding="utf-8"?>
<!-- Generator: Adobe Illustrator 16.0.3, SVG Export Plug-In . SVG Version: 6.00 Build 0)  -->
<!DOCTYPE svg PUBLIC "-//W3C//DTD SVG 1.1//EN" "http://www.w3.org/Graphics/SVG/1.1/DTD/svg11.dtd">
<svg version="1.1" xmlns="http://www.w3.org/2000/svg" xmlns:xlink="http://www.w3.org/1999/xlink" x="0px" y="0px"
	 width="841.89px" height="595.28px" viewBox="0 0 841.89 595.28" enable-background="new 0 0 841.89 595.28" xml:space="preserve">
<g id="圖層_1" display="none">
	<polygon display="inline" fill="#FFFFFF" stroke="#000000" stroke-width="0.3578" stroke-miterlimit="10" points="406,311.174 
		406,274.674 363,274.674 363,311.174 363.113,311.174 305.001,356.174 328.725,356.174 347.902,356.174 406.014,311.174 	"/>
	
		<circle display="inline" fill="none" stroke="#000000" stroke-width="0.6307" stroke-miterlimit="10" cx="291.5" cy="274.674" r="54"/>
	<path display="inline" fill="none" stroke="#000000" stroke-width="0.3226" stroke-miterlimit="10" d="M363,294.375
		c0,0-2.867,16.348-15.095,28.575"/>
	<path display="inline" fill="none" stroke="#000000" stroke-width="0.2724" stroke-miterlimit="10" d="M406.014,297.924
		c0,0-2.511,13.316-13.22,23.276"/>
</g>
<g id="圖層_2">
	<rect x="508.5" y="252" fill="#B5B5B6" width="145" height="134"/>
	<path fill="#FFFFFF" stroke="#666464" stroke-width="0.9511" stroke-miterlimit="10" d="M589.409,280.321h38.753
		c0,0,0.04,15.769,0.011,16.622c-0.139,4.217,1.085,10.836-8.185,20.837l-28.893,32.137h-45.778l33.027-32.908
		c0,0,9.854-8.123,10.926-18.32C589.308,298.313,589.374,280.691,589.409,280.321z"/>
	<path fill="none" stroke="#666464" stroke-width="0.9511" stroke-miterlimit="10" d="M316.988,311.401h38.753
		c0,0,0.04,15.77,0.011,16.622c-0.139,4.217,1.085,10.836-8.185,20.837l-28.893,32.137h-45.778l33.027-32.908
		c0,0,9.854-8.123,10.926-18.32C316.887,329.394,316.953,311.772,316.988,311.401z"/>
	<g>
		<path fill="#C30D23" d="M436.429,218.618h-58.675l41.057-40.881c0.076-0.063,8.348-7.035,9.295-15.166
			c0.018-0.906,0.043-5.42,0.064-9.084c0.051-9.008,0.057-9.065,0.087-9.39l0.386-4.075h47.336l0.012,4.488
			c0.009,3.719,0.037,15.92,0.008,16.788c-0.014,0.423-0.012,0.881-0.01,1.368c0.018,4.567,0.046,12.212-9.372,22.373
			L436.429,218.618z M399.537,209.618h32.881l27.552-30.646c7.052-7.608,7.033-12.412,7.019-16.272
			c-0.002-0.604-0.003-1.171,0.015-1.703c0.015-0.592,0.008-6.549-0.003-11.975h-29.805c-0.009,1.439-0.018,3.049-0.025,4.516
			c-0.055,9.396-0.061,9.457-0.094,9.795c-1.179,11.221-10.846,19.9-12.357,21.194L399.537,209.618z"/>
	</g>
	<path fill="none" stroke="#000000" stroke-width="0.283" stroke-miterlimit="10" d="M147.443,103.1h40
		c0,0,0.041,23.281,0.013,24.16c-0.14,4.353,1.118,11.185-8.449,21.507l-35.063,38.416H96.694l39.333-39.213
		c0,0,10.167-8.385,11.271-18.911C147.337,128.676,147.406,103.481,147.443,103.1z"/>
	<text transform="matrix(1 0 0 1 66.2266 368.8018)"><tspan x="0" y="0" font-family="'Roboto-Black'" font-size="7.1341" letter-spacing="2">EGG</tspan><tspan x="19.828" y="0" font-family="'Roboto-Black'" font-size="7.1341" letter-spacing="-1"> </tspan><tspan x="20.32" y="0" font-family="'Roboto-Black'" font-size="7.1341" letter-spacing="2">WASH</tspan></text>
	<rect x="508.5" y="386" fill="none" stroke="#666464" stroke-width="0.5822" stroke-miterlimit="10" width="145" height="61.833"/>
	
		<text transform="matrix(1 0 0 1 39.2266 409.3994)" font-family="'GenShinGothic-Monospace-Regular'" font-size="14.8142" letter-spacing="3">蛋洗設計所</text>
	
		<text transform="matrix(1 0 0 1 39.2266 445.6699)" fill="#898989" font-family="'GenShinGothic-Monospace-Normal'" font-size="11.0498" letter-spacing="1">蛋洗設計所</text>
	<path fill="#B5B5B6" d="M142.08,286.837l35.063-34.83h35.233c0,0,1.625-0.197,2.5,1.553c-1.795,1.795-26.688,31.688-30.125,35.125
		c-0.75-1.875-4-1.848-4-1.848H142.08z"/>
	<g>
		<path fill="#727171" d="M236.993,179.32H198.38l0.197-0.196l31.869-31.772c0.089-0.074,8.22-6.87,9.099-15.252
			c0.017-0.181,0.04-5.83,0.061-10.814c0.025-6.078,0.044-10.073,0.058-10.219l0.011-0.104h32.628v0.115
			c0.002,0.77,0.034,18.873,0.011,19.579c-0.013,0.398-0.011,0.825-0.01,1.276c0.014,3.494,0.034,8.776-6.867,16.223L236.993,179.32
			z M198.936,179.091h37.955l28.377-31.09c6.84-7.381,6.819-12.607,6.806-16.066c-0.001-0.453-0.003-0.882,0.01-1.285
			c0.022-0.672-0.007-17.879-0.011-19.457h-32.185c-0.014,0.768-0.034,5.503-0.053,10.094c-0.026,6.447-0.046,10.685-0.062,10.837
			c-0.89,8.477-9.091,15.331-9.174,15.398L198.936,179.091z"/>
	</g>
	<text transform="matrix(1 0 0 1 66.2266 375.6104)" font-family="'Roboto-Light'" font-size="4.4342" letter-spacing="1">design studio</text>
	<g>
		<path fill="#FFFFFF" stroke="#666464" stroke-width="1.063" stroke-miterlimit="10" d="M623.334,387.826
			c0,4.695-3.808,8.504-8.504,8.504h-70.16c-4.696,0-8.504-3.809-8.504-8.504v-3.571c0-4.699,3.808-8.506,8.504-8.506h70.16
			c4.696,0,8.504,3.807,8.504,8.506V387.826z"/>
		
			<text transform="matrix(1 0 0 1 547.377 390.4824)" fill="#666464" font-family="'GenShinGothic-Monospace-Bold'" font-size="11.7461" letter-spacing="1">蛋洗設計所</text>
	</g>
	<g>
		<text transform="matrix(1 0 0 1 518.7969 422.5615)"><tspan x="0" y="0" fill="#666464" font-family="'Roboto-BoldCondensed'" font-size="23.3775" letter-spacing="4">EGG</tspan><tspan x="52.266" y="0" fill="#666464" font-family="'Roboto-BoldCondensed'" font-size="23.3775" letter-spacing="-4"> </tspan><tspan x="52.762" y="0" fill="#666464" font-family="'Roboto-BoldCondensed'" font-size="23.3775" letter-spacing="4">WASH</tspan></text>
		
			<text transform="matrix(1 0 0 1 518.7959 436.0176)" fill="#666464" font-family="'Roboto-Regular'" font-size="8.5517" letter-spacing="5">DESIGN STUDIO</text>
	</g>
	
		<rect x="508.5" y="252" fill="none" stroke="#666464" stroke-width="1.9251" stroke-miterlimit="10" width="145" height="195.833"/>
	<rect x="711" y="304.534" fill="#C30D23" width="45.382" height="45.382"/>
	<rect x="711" y="379.827" fill="#F5F297" width="45.382" height="45.382"/>
	
		<text transform="matrix(1 0 0 1 395.377 445.6699)" fill="#C30D23" font-family="'GenShinGothic-Monospace-Bold'" font-size="11.7461" letter-spacing="1">蛋洗設計所</text>
</g>
</svg>
