<?xml version="1.0" encoding="utf-8"?>
<!-- Generator: Adobe Illustrator 16.0.3, SVG Export Plug-In . SVG Version: 6.00 Build 0)  -->
<!DOCTYPE svg PUBLIC "-//W3C//DTD SVG 1.1//EN" "http://www.w3.org/Graphics/SVG/1.1/DTD/svg11.dtd">
<svg version="1.1" xmlns="http://www.w3.org/2000/svg" xmlns:xlink="http://www.w3.org/1999/xlink" x="0px" y="0px"
	 width="293.571px" height="274px" viewBox="0 0 293.571 274" enable-background="new 0 0 293.571 274" xml:space="preserve">
<g id="圖層_1" display="none">
</g>
<g id="圖層_2">
	<g>
		<path fill="#C30D23" d="M156.332,133H97.657l41.057-40.881c0.075-0.063,8.348-7.035,9.295-15.166
			c0.018-0.906,0.043-5.42,0.064-9.084c0.051-9.008,0.057-9.065,0.087-9.39l0.386-4.075h47.336l0.012,4.488
			c0.009,3.719,0.037,15.92,0.008,16.788c-0.014,0.423-0.012,0.881-0.01,1.368c0.018,4.567,0.046,12.212-9.372,22.373L156.332,133z
			 M119.44,124h32.881l27.552-30.646c7.052-7.608,7.033-12.412,7.019-16.272c-0.002-0.604-0.003-1.171,0.015-1.703
			c0.015-0.592,0.008-6.549-0.003-11.975h-29.805c-0.009,1.439-0.018,3.049-0.025,4.516c-0.055,9.396-0.061,9.457-0.094,9.795
			c-1.179,11.221-10.846,19.9-12.357,21.194L119.44,124z"/>
	</g>
	<g>
		<path fill="#C30D23" d="M72.512,213.94h-8.27v5.852h9.913v4.19h-15.36v-23.469h15.377v4.191h-9.93v5.045h8.27V213.94z"/>
		<path fill="#C30D23" d="M98.396,220.742c-0.817,0.989-1.967,1.833-3.449,2.531c-1.483,0.698-3.391,1.048-5.723,1.048
			c-2.912,0-5.276-0.893-7.092-2.676c-1.816-1.784-2.725-4.1-2.725-6.947v-4.9c0-2.826,0.884-5.136,2.652-6.931
			c1.768-1.794,4.043-2.691,6.826-2.691c2.998,0,5.263,0.669,6.794,2.007s2.27,3.167,2.216,5.488l-0.032,0.097h-5.109
			c0-1.15-0.307-2.004-0.919-2.563c-0.612-0.559-1.537-0.838-2.772-0.838c-1.268,0-2.289,0.5-3.063,1.499s-1.16,2.3-1.16,3.9v4.933
			c0,1.634,0.384,2.947,1.152,3.94c0.768,0.994,1.846,1.491,3.231,1.491c1,0,1.786-0.08,2.361-0.241s1.029-0.376,1.362-0.646v-4.19
			h-4.158v-3.61h9.606V220.742z"/>
		<path fill="#C30D23" d="M122.845,220.742c-0.817,0.989-1.967,1.833-3.449,2.531c-1.483,0.698-3.391,1.048-5.723,1.048
			c-2.912,0-5.276-0.893-7.092-2.676c-1.816-1.784-2.725-4.1-2.725-6.947v-4.9c0-2.826,0.884-5.136,2.652-6.931
			c1.768-1.794,4.043-2.691,6.826-2.691c2.998,0,5.263,0.669,6.794,2.007s2.27,3.167,2.216,5.488l-0.032,0.097h-5.109
			c0-1.15-0.307-2.004-0.919-2.563c-0.612-0.559-1.537-0.838-2.772-0.838c-1.268,0-2.289,0.5-3.063,1.499s-1.16,2.3-1.16,3.9v4.933
			c0,1.634,0.384,2.947,1.152,3.94c0.768,0.994,1.846,1.491,3.231,1.491c1,0,1.786-0.08,2.361-0.241s1.029-0.376,1.362-0.646v-4.19
			h-4.158v-3.61h9.606V220.742z"/>
		<path fill="#C30D23" d="M147.93,215.729h0.097l2.837-15.216h5.513l-5.384,23.469h-5.125l-3.949-14.49h-0.097l-3.917,14.49h-5.126
			l-5.399-23.469h5.528l2.837,15.232l0.097,0.016l3.981-15.248h4.11L147.93,215.729z"/>
		<path fill="#C30D23" d="M174.021,219.421h-6.979l-1.354,4.562h-5.737l7.656-23.469h2.917v0.017l0.017-0.017h2.917l7.673,23.469
			h-5.738L174.021,219.421z M168.299,215.23h4.465l-2.191-7.286h-0.098L168.299,215.23z"/>
		<path fill="#C30D23" d="M198.872,217.761c0-0.838-0.273-1.48-0.822-1.926c-0.548-0.446-1.542-0.922-2.981-1.427
			c-2.912-0.945-5.075-1.953-6.488-3.022s-2.119-2.608-2.119-4.618c0-1.966,0.822-3.557,2.466-4.771
			c1.645-1.215,3.734-1.821,6.271-1.821c2.676,0,4.83,0.626,6.464,1.878c1.633,1.252,2.423,3.017,2.369,5.295l-0.032,0.097h-5.287
			c0-1.107-0.301-1.91-0.902-2.41c-0.603-0.5-1.51-0.749-2.725-0.749c-0.988,0-1.768,0.241-2.337,0.725s-0.854,1.08-0.854,1.789
			c0,0.688,0.293,1.239,0.879,1.652c0.585,0.414,1.679,0.933,3.28,1.556c2.718,0.806,4.776,1.789,6.173,2.949
			c1.396,1.161,2.096,2.751,2.096,4.771c0,2.063-0.806,3.678-2.418,4.844c-1.611,1.166-3.75,1.749-6.415,1.749
			c-2.654,0-4.902-0.626-6.745-1.878c-1.844-1.252-2.738-3.221-2.685-5.907l0.032-0.097h5.304c0,1.364,0.335,2.334,1.007,2.909
			c0.672,0.574,1.701,0.862,3.087,0.862c1.139,0,1.988-0.226,2.547-0.677C198.593,219.082,198.872,218.491,198.872,217.761z"/>
		<path fill="#C30D23" d="M230.815,223.982h-5.432v-9.445h-8.688v9.445h-5.447v-23.469h5.447v9.833h8.688v-9.833h5.432V223.982z"/>
	</g>
</g>
</svg>
