<?xml version="1.0" encoding="utf-8"?>
<!-- Generator: Adobe Illustrator 16.0.3, SVG Export Plug-In . SVG Version: 6.00 Build 0)  -->
<!DOCTYPE svg PUBLIC "-//W3C//DTD SVG 1.1//EN" "http://www.w3.org/Graphics/SVG/1.1/DTD/svg11.dtd">
<svg version="1.1" id="圖層_1" xmlns="http://www.w3.org/2000/svg" xmlns:xlink="http://www.w3.org/1999/xlink" x="0px" y="0px"
	 width="29.417px" height="33.417px" viewBox="0 0 29.417 33.417" enable-background="new 0 0 29.417 33.417" xml:space="preserve">
<g id="圖層_1_1_">
	<g>
		<path fill="none" stroke="#231815" stroke-width="0.5118" stroke-miterlimit="10" d="M28.905,30.796
			c0,1.072-0.969,1.938-2.161,1.938H6.897c-1.193,0-2.16-0.866-2.16-1.938V2.7c0-1.07,0.967-1.939,2.16-1.939h19.847
			c1.192,0,2.161,0.869,2.161,1.939V30.796z"/>
		<path fill="none" stroke="#FFFFFF" stroke-linejoin="round" stroke-miterlimit="10" d="M26.746,0.76H6.898
			c-1.194,0-2.161,0.869-2.161,1.939v23.019l-3.711,0.748c0,0,0.043-0.006-0.151,0.043c-0.037,0.008,0.003,0.037-0.001,0.189
			c-0.03,1.121-0.804,2.254,3.863,2.254v1.844c0,1.072,0.967,1.938,2.161,1.938h19.848c1.192,0,2.159-0.866,2.159-1.938V2.7
			C28.905,1.629,27.938,0.76,26.746,0.76z"/>
		<path fill="#FFFFFF" d="M0.946,26.544c-0.037,0.01,0.003,0.033-0.001,0.172c-0.03,1.017-0.805,2.041,3.871,2.041
			c4.755,0,20.241-1.84,23.518-2.381c0.444-0.074,0.682,0.043,0.691-0.114c0.016-0.202-0.332-0.103-0.838-0.28
			c-1.553-0.552-1.532-2.211-1.707-3.68c-0.009-0.078-0.044-0.196-0.135-0.27c-0.156-0.125-0.229-0.1-0.229-0.1L1.096,26.505
			C1.097,26.507,1.14,26.501,0.946,26.544z"/>
		<g>
			<rect x="14.449" y="3.273" fill="#FFFFFF" width="4.419" height="0.672"/>
		</g>
		<g>
			<rect x="16.363" y="3.609" fill="#FFFFFF" width="0.592" height="17.514"/>
		</g>
		<g>
			<rect x="14.449" y="20.789" fill="#FFFFFF" width="4.419" height="0.672"/>
		</g>
		<polygon fill="#FFFFFF" points="15.473,5.664 16.66,3.609 17.844,5.664 		"/>
		<polygon fill="#FFFFFF" points="17.844,19.069 16.66,21.123 15.473,19.069 		"/>
	</g>
</g>
<g id="圖層_2" display="none">
	<g display="inline">
		<path fill="#FFFFFF" stroke="#3E3A39" stroke-linecap="round" stroke-linejoin="round" stroke-miterlimit="10" d="M21.363,0.121
			c-1.447,0-3.056,0.189-4.302,0.799l0,0c-0.575-0.3-1.112-0.408-1.524-0.511c-0.658-0.166-1.673-0.475-2.917-0.133
			C10.177,0.949,7.395,2.16,7.395,2.16C5.472,2.902,3.793,3.684,3.281,5.547l-5.364,19.576c-0.511,1.862,0.532,3.771,2.327,4.266
			l13.68,3.746c1.795,0.492,3.666-0.617,4.174-2.482l5.364-19.573c0.512-1.864-0.11-2.864-1.409-4.619c0,0-1.028-1.567-2.663-3.386
			l-0.363-0.41c0.967-0.374,1.469-0.599,2.337-0.599c4.041,0,7.328,3.287,7.328,7.327c0,3.548-1.724,6.214-5.208,6.845
			c-0.529,0.095-0.879,0.6-0.785,1.128c0.088,0.471,0.494,0.799,0.956,0.799c0.058,0,0.116-0.004,0.173-0.017
			c4.412-0.797,6.811-4.268,6.811-8.756C30.634,4.28,26.477,0.121,21.363,0.121z"/>
		<path fill="none" stroke="#3E3A39" stroke-width="0.4292" stroke-linecap="round" stroke-miterlimit="10" d="M18.949,2.575
			c1.637,1.82,3.104,3.884,3.104,3.884c1.299,1.754,1.92,2.754,1.407,4.619l-5.362,19.573c-0.513,1.865-2.382,2.978-4.175,2.483
			l-13.68-3.747c-1.795-0.493-2.837-2.401-2.326-4.265L3.28,5.547c0.512-1.864,2.191-2.646,4.114-3.388c0,0,2.782-1.21,5.226-1.884
			c1.243-0.342,2.259-0.032,2.917,0.133c0.412,0.103,1.065,0.269,1.643,0.569"/>
		<path fill="#DCDDDD" stroke="#3E3A39" stroke-width="0.2596" stroke-miterlimit="10" d="M15.83,28.701
			c-0.34,1.235-1.692,1.943-3.024,1.58L2.661,27.498c-1.332-0.363-2.136-1.662-1.797-2.897L4.75,10.415
			c0.339-1.237,1.693-1.944,3.025-1.581l10.145,2.78c1.332,0.365,2.139,1.664,1.797,2.901L15.83,28.701z"/>
		<path fill="none" stroke="#3E3A39" stroke-width="0.3135" stroke-linecap="round" stroke-miterlimit="10" d="M16.685,4.351
			c0.256,0.529,0.193,1.067,0.044,1.552c-0.401,1.291-1.774,2.014-3.064,1.612c-1.292-0.4-2.014-1.773-1.613-3.063
			c0.35-1.126,1.48-1.923,2.731-1.697"/>
		<g>
			<path fill="none" stroke="#3E3A39" stroke-width="0.75" stroke-miterlimit="10" d="M23.653,18.164
				c-0.462,0-0.868-0.33-0.954-0.799c-0.095-0.528,0.256-1.034,0.784-1.128c3.483-0.631,5.207-3.297,5.207-6.845
				c0-4.04-3.286-7.327-7.327-7.327c-2.568,0-4.906,1.311-6.252,3.504c-0.279,0.459-0.877,0.604-1.336,0.321
				c-0.457-0.28-0.6-0.878-0.321-1.335c1.701-2.777,4.657-4.434,7.909-4.434c5.113,0,9.271,4.159,9.271,9.271
				c0,4.488-2.396,7.959-6.809,8.756C23.769,18.16,23.71,18.164,23.653,18.164z"/>
		</g>
	</g>
</g>
<g id="圖層_3" display="none">
	<rect x="-1.021" y="7" display="inline" fill="#FFFFFF" width="31.801" height="23.625"/>
	<path display="inline" fill="none" stroke="#3E3A39" stroke-width="1.1416" stroke-linecap="round" stroke-miterlimit="10" d="
		M31.212,29.628c0,0.688-0.479,1.244-1.065,1.244H-0.314c-0.589,0-1.066-0.558-1.066-1.244V5.379c0-0.688,0.478-1.243,1.066-1.243
		h30.461c0.589,0,1.065,0.556,1.065,1.243V29.628z"/>
	
		<line display="inline" fill="none" stroke="#3E3A39" stroke-width="0.5507" stroke-linecap="round" stroke-miterlimit="10" x1="-1.38" y1="7" x2="30.78" y2="7"/>
	
		<circle display="inline" fill="none" stroke="#3E3A39" stroke-width="0.1135" stroke-linecap="round" stroke-miterlimit="10" cx="0.578" cy="5.731" r="0.454"/>
	
		<circle display="inline" fill="none" stroke="#3E3A39" stroke-width="0.1135" stroke-linecap="round" stroke-miterlimit="10" cx="1.931" cy="5.731" r="0.454"/>
	
		<circle display="inline" fill="none" stroke="#3E3A39" stroke-width="0.1135" stroke-linecap="round" stroke-miterlimit="10" cx="3.286" cy="5.731" r="0.454"/>
	
		<polygon display="inline" fill="#DCDDDD" stroke="#3E3A39" stroke-width="0.9123" stroke-linecap="round" stroke-linejoin="round" stroke-miterlimit="10" points="
		19.53,14.393 15.03,22.186 12.051,17.027 6.095,27.343 12.051,27.343 18.007,27.343 27.003,27.343 	"/>
	
		<circle display="inline" fill="#DCDDDD" stroke="#3E3A39" stroke-width="0.9123" stroke-linecap="round" stroke-linejoin="round" stroke-miterlimit="10" cx="6.147" cy="13.919" r="2.407"/>
</g>
<g id="圖層_4" display="none">
	<g display="inline">
		<g>
			<path fill="#FFFFFF" stroke="#3E3A39" stroke-miterlimit="10" d="M23.041,3.085H4.66c-1.515,0-2.743,1.228-2.743,2.742V28
				c0,1.518,1.228,2.742,2.743,2.742h22.171c1.516,0,2.739-1.227,2.739-2.742V8.493"/>
			<path fill="#DCDDDD" stroke="#3E3A39" stroke-linecap="round" stroke-linejoin="round" stroke-miterlimit="10" d="M23.041,3.085
				c0,0-1.232,5.571,0.219,5.553c4.221-0.053,2.639,0.069,6.314-0.145L23.041,3.085z"/>
		</g>
		<g>
			
				<path fill="#F7F8F8" stroke="#3E3A39" stroke-width="0.8711" stroke-linecap="round" stroke-linejoin="round" stroke-miterlimit="10" d="
				M31.197,32.023c0,0.521-0.425,0.945-0.947,0.945H16.041c-0.522,0-0.948-0.424-0.948-0.945v-4.736
				c0-0.522,0.424-0.947,0.948-0.947H30.25c0.522,0,0.947,0.425,0.947,0.947V32.023z"/>
			<g>
				
					<line fill="none" stroke="#3E3A39" stroke-width="0.4289" stroke-linecap="round" stroke-linejoin="round" stroke-miterlimit="10" x1="5.982" y1="9.074" x2="16.716" y2="9.074"/>
				
					<line fill="none" stroke="#3E3A39" stroke-width="0.4289" stroke-linecap="round" stroke-linejoin="round" stroke-miterlimit="10" x1="5.982" y1="11.034" x2="16.716" y2="11.034"/>
				
					<line fill="none" stroke="#3E3A39" stroke-width="0.4289" stroke-linecap="round" stroke-linejoin="round" stroke-miterlimit="10" x1="5.982" y1="12.994" x2="16.716" y2="12.994"/>
				
					<line fill="none" stroke="#3E3A39" stroke-width="0.5111" stroke-linecap="round" stroke-linejoin="round" stroke-miterlimit="10" x1="5.982" y1="14.954" x2="21.225" y2="14.954"/>
				
					<line fill="none" stroke="#3E3A39" stroke-width="0.5111" stroke-linecap="round" stroke-linejoin="round" stroke-miterlimit="10" x1="5.982" y1="16.914" x2="21.225" y2="16.914"/>
				
					<line fill="none" stroke="#3E3A39" stroke-width="0.5111" stroke-linecap="round" stroke-linejoin="round" stroke-miterlimit="10" x1="5.982" y1="18.946" x2="21.225" y2="18.946"/>
			</g>
			<g>
				
					<polyline fill="none" stroke="#3E3A39" stroke-width="0.6815" stroke-linecap="round" stroke-linejoin="round" stroke-miterlimit="10" points="
					19.815,27.824 17.94,29.562 19.861,31.484 				"/>
				
					<polyline fill="none" stroke="#3E3A39" stroke-width="0.6815" stroke-linecap="round" stroke-linejoin="round" stroke-miterlimit="10" points="
					26.472,31.484 28.348,29.746 26.427,27.824 				"/>
				
					<line fill="none" stroke="#3E3A39" stroke-width="0.6815" stroke-linecap="round" stroke-linejoin="round" stroke-miterlimit="10" x1="24.957" y1="27.841" x2="21.332" y2="31.464"/>
			</g>
		</g>
	</g>
</g>
</svg>
