<?xml version="1.0" encoding="utf-8"?>
<!-- Generator: Adobe Illustrator 16.0.3, SVG Export Plug-In . SVG Version: 6.00 Build 0)  -->
<!DOCTYPE svg PUBLIC "-//W3C//DTD SVG 1.1//EN" "http://www.w3.org/Graphics/SVG/1.1/DTD/svg11.dtd">
<svg version="1.1" id="圖層_1" xmlns="http://www.w3.org/2000/svg" xmlns:xlink="http://www.w3.org/1999/xlink" x="0px" y="0px"
	 width="31.917px" height="33.417px" viewBox="0 0 31.917 33.417" enable-background="new 0 0 31.917 33.417" xml:space="preserve">
<g id="圖層_1_1_" display="none">
	<g display="inline">
		<path fill="none" stroke="#231815" stroke-width="0.5118" stroke-miterlimit="10" d="M30.238,30.796
			c0,1.072-0.969,1.939-2.16,1.939H8.23c-1.193,0-2.16-0.867-2.16-1.939V2.7c0-1.07,0.967-1.939,2.16-1.939h19.848
			c1.191,0,2.16,0.869,2.16,1.939V30.796z"/>
		<path fill="none" stroke="#3E3A39" stroke-width="1.3782" stroke-linejoin="round" stroke-miterlimit="10" d="M28.078,0.76H8.231
			c-1.194,0-2.161,0.869-2.161,1.939v23.019l-3.711,0.748c0,0,0.043-0.006-0.151,0.043c-0.037,0.008,0.003,0.037-0.001,0.189
			c-0.03,1.122-0.804,2.254,3.863,2.254v1.844c0,1.072,0.967,1.939,2.161,1.939h19.847c1.193,0,2.16-0.867,2.16-1.939V2.7
			C30.238,1.629,29.271,0.76,28.078,0.76z"/>
		<path fill="#FFFFFF" stroke="#3E3A39" stroke-width="0.6891" stroke-miterlimit="10" d="M2.28,26.544
			c-0.037,0.01,0.003,0.033-0.001,0.172c-0.03,1.017-0.805,2.041,3.871,2.041c4.755,0,20.241-1.84,23.518-2.381
			c0.444-0.074,0.681,0.043,0.691-0.114c0.016-0.202-0.332-0.103-0.838-0.28c-1.553-0.552-1.532-2.211-1.707-3.68
			c-0.009-0.078-0.044-0.196-0.135-0.27c-0.156-0.125-0.229-0.099-0.229-0.099l-25.02,4.573C2.431,26.507,2.474,26.501,2.28,26.544z
			"/>
		<g>
			<rect x="15.782" y="3.273" fill="#3E3A39" width="4.418" height="0.672"/>
		</g>
		<g>
			<rect x="17.696" y="3.609" fill="#3E3A39" width="0.593" height="17.514"/>
		</g>
		<g>
			<rect x="15.782" y="20.789" fill="#3E3A39" width="4.418" height="0.672"/>
		</g>
		<polygon fill="#3E3A39" points="16.806,5.664 17.992,3.609 19.178,5.664 		"/>
		<polygon fill="#3E3A39" points="19.178,19.069 17.994,21.123 16.806,19.069 		"/>
	</g>
</g>
<g>
	
		<path fill="none" stroke="#FFFFFF" stroke-width="0.9506" stroke-linecap="round" stroke-linejoin="round" stroke-miterlimit="10" d="
		M22.772,0.896c-1.354,0-2.858,0.183-4.024,0.772l0,0c-0.537-0.29-1.039-0.394-1.426-0.493c-0.613-0.16-1.563-0.459-2.726-0.129
		c-2.285,0.65-4.884,1.821-4.884,1.821C7.914,3.585,6.343,4.34,5.863,6.142L0.849,25.061c-0.478,1.804,0.498,3.646,2.176,4.122
		l12.789,3.623c1.678,0.475,3.426-0.6,3.902-2.402l5.015-18.917c0.479-1.801-0.103-2.768-1.315-4.463c0,0-0.959-1.515-2.49-3.272
		l-0.338-0.396c0.902-0.363,1.371-0.579,2.187-0.579c3.774,0,6.849,3.176,6.849,7.081c0,3.43-1.607,6.007-4.867,6.618
		c-0.496,0.091-0.822,0.579-0.735,1.09c0.081,0.452,0.463,0.771,0.896,0.771c0.055,0,0.105-0.004,0.162-0.018
		c4.125-0.77,6.363-4.125,6.363-8.462C31.438,4.916,27.552,0.896,22.772,0.896z"/>
	<path fill="none" stroke="#FFFFFF" stroke-width="0.408" stroke-linecap="round" stroke-miterlimit="10" d="M20.513,3.268
		c1.531,1.759,2.902,3.755,2.902,3.755c1.213,1.696,1.795,2.662,1.313,4.463l-5.013,18.917c-0.478,1.804-2.228,2.878-3.903,2.402
		l-12.79-3.623c-1.678-0.478-2.653-2.317-2.176-4.122L5.863,6.142c0.48-1.801,2.05-2.557,3.848-3.274c0,0,2.601-1.17,4.885-1.821
		c1.162-0.33,2.112-0.031,2.728,0.129c0.387,0.1,0.997,0.26,1.534,0.55"/>
	<path fill="none" stroke="#FFFFFF" stroke-width="0.2468" stroke-miterlimit="10" d="M17.598,28.519
		c-0.318,1.195-1.584,1.878-2.829,1.527l-9.484-2.688c-1.247-0.353-1.998-1.61-1.68-2.803l3.633-13.71
		c0.316-1.196,1.583-1.88,2.828-1.527l9.484,2.687c1.244,0.352,1.998,1.607,1.679,2.804L17.598,28.519z"/>
	<path fill="none" stroke="#FFFFFF" stroke-width="0.298" stroke-linecap="round" stroke-miterlimit="10" d="M18.397,4.984
		c0.237,0.514,0.181,1.032,0.04,1.501c-0.375,1.248-1.659,1.946-2.866,1.557c-1.206-0.386-1.881-1.712-1.507-2.959
		c0.328-1.088,1.385-1.859,2.555-1.642"/>
	<g>
		<path fill="none" stroke="#FFFFFF" stroke-width="0.713" stroke-miterlimit="10" d="M24.912,18.335
			c-0.433,0-0.813-0.32-0.895-0.772c-0.087-0.512,0.238-1,0.734-1.09c3.26-0.611,4.867-3.188,4.867-6.618
			c0-3.904-3.072-7.081-6.848-7.081c-2.404,0-4.587,1.266-5.85,3.387c-0.258,0.442-0.818,0.584-1.248,0.31
			c-0.428-0.27-0.561-0.848-0.3-1.29c1.59-2.684,4.356-4.285,7.397-4.285c4.777,0,8.664,4.019,8.664,8.959
			c0,4.338-2.238,7.693-6.364,8.462C25.018,18.332,24.966,18.335,24.912,18.335z"/>
	</g>
</g>
<g id="圖層_3" display="none">
	<rect x="0.313" y="7" display="inline" fill="#FFFFFF" width="31.801" height="23.625"/>
	<path display="inline" fill="none" stroke="#3E3A39" stroke-width="1.1416" stroke-linecap="round" stroke-miterlimit="10" d="
		M32.546,29.628c0,0.688-0.478,1.244-1.065,1.244H1.02c-0.589,0-1.066-0.557-1.066-1.244V5.379c0-0.688,0.478-1.243,1.066-1.243
		h30.46c0.589,0,1.066,0.556,1.066,1.243V29.628L32.546,29.628z"/>
	
		<line display="inline" fill="none" stroke="#3E3A39" stroke-width="0.5507" stroke-linecap="round" stroke-miterlimit="10" x1="-0.047" y1="7" x2="32.113" y2="7"/>
	
		<circle display="inline" fill="none" stroke="#3E3A39" stroke-width="0.1135" stroke-linecap="round" stroke-miterlimit="10" cx="1.911" cy="5.731" r="0.454"/>
	
		<circle display="inline" fill="none" stroke="#3E3A39" stroke-width="0.1135" stroke-linecap="round" stroke-miterlimit="10" cx="3.265" cy="5.731" r="0.454"/>
	
		<circle display="inline" fill="none" stroke="#3E3A39" stroke-width="0.1135" stroke-linecap="round" stroke-miterlimit="10" cx="4.619" cy="5.731" r="0.454"/>
	
		<polygon display="inline" fill="#DCDDDD" stroke="#3E3A39" stroke-width="0.9123" stroke-linecap="round" stroke-linejoin="round" stroke-miterlimit="10" points="
		20.863,14.393 16.363,22.186 13.385,17.027 7.429,27.343 13.385,27.343 19.341,27.343 28.337,27.343 	"/>
	
		<circle display="inline" fill="#DCDDDD" stroke="#3E3A39" stroke-width="0.9123" stroke-linecap="round" stroke-linejoin="round" stroke-miterlimit="10" cx="7.48" cy="13.919" r="2.407"/>
</g>
<g id="圖層_4" display="none">
	<g display="inline">
		<g>
			<path fill="#FFFFFF" stroke="#3E3A39" stroke-miterlimit="10" d="M24.375,3.085H5.994c-1.515,0-2.743,1.228-2.743,2.742V28
				c0,1.517,1.228,2.742,2.743,2.742h22.171c1.516,0,2.74-1.227,2.74-2.742V8.493"/>
			<path fill="#DCDDDD" stroke="#3E3A39" stroke-linecap="round" stroke-linejoin="round" stroke-miterlimit="10" d="M24.375,3.085
				c0,0-1.234,5.571,0.217,5.553c4.221-0.053,2.639,0.069,6.314-0.145L24.375,3.085z"/>
		</g>
		<g>
			
				<path fill="#F7F8F8" stroke="#3E3A39" stroke-width="0.8711" stroke-linecap="round" stroke-linejoin="round" stroke-miterlimit="10" d="
				M32.53,32.023c0,0.521-0.425,0.945-0.946,0.945H17.373c-0.522,0-0.947-0.424-0.947-0.945v-4.736c0-0.523,0.424-0.947,0.947-0.947
				h14.211c0.521,0,0.946,0.424,0.946,0.947V32.023z"/>
			<g>
				
					<line fill="none" stroke="#3E3A39" stroke-width="0.4289" stroke-linecap="round" stroke-linejoin="round" stroke-miterlimit="10" x1="7.315" y1="9.074" x2="18.05" y2="9.074"/>
				
					<line fill="none" stroke="#3E3A39" stroke-width="0.4289" stroke-linecap="round" stroke-linejoin="round" stroke-miterlimit="10" x1="7.315" y1="11.034" x2="18.05" y2="11.034"/>
				
					<line fill="none" stroke="#3E3A39" stroke-width="0.4289" stroke-linecap="round" stroke-linejoin="round" stroke-miterlimit="10" x1="7.315" y1="12.994" x2="18.05" y2="12.994"/>
				
					<line fill="none" stroke="#3E3A39" stroke-width="0.5111" stroke-linecap="round" stroke-linejoin="round" stroke-miterlimit="10" x1="7.315" y1="14.954" x2="22.559" y2="14.954"/>
				
					<line fill="none" stroke="#3E3A39" stroke-width="0.5111" stroke-linecap="round" stroke-linejoin="round" stroke-miterlimit="10" x1="7.315" y1="16.914" x2="22.559" y2="16.914"/>
				
					<line fill="none" stroke="#3E3A39" stroke-width="0.5111" stroke-linecap="round" stroke-linejoin="round" stroke-miterlimit="10" x1="7.315" y1="18.946" x2="22.559" y2="18.946"/>
			</g>
			<g>
				
					<polyline fill="none" stroke="#3E3A39" stroke-width="0.6815" stroke-linecap="round" stroke-linejoin="round" stroke-miterlimit="10" points="
					21.148,27.824 19.273,29.562 21.194,31.484 				"/>
				
					<polyline fill="none" stroke="#3E3A39" stroke-width="0.6815" stroke-linecap="round" stroke-linejoin="round" stroke-miterlimit="10" points="
					27.806,31.484 29.682,29.746 27.761,27.824 				"/>
				
					<line fill="none" stroke="#3E3A39" stroke-width="0.6815" stroke-linecap="round" stroke-linejoin="round" stroke-miterlimit="10" x1="26.291" y1="27.841" x2="22.666" y2="31.464"/>
			</g>
		</g>
	</g>
</g>
</svg>
