<?xml version="1.0" encoding="utf-8"?>
<!-- Generator: Adobe Illustrator 16.0.3, SVG Export Plug-In . SVG Version: 6.00 Build 0)  -->
<!DOCTYPE svg PUBLIC "-//W3C//DTD SVG 1.1//EN" "http://www.w3.org/Graphics/SVG/1.1/DTD/svg11.dtd">
<svg version="1.1" id="圖層_1" xmlns="http://www.w3.org/2000/svg" xmlns:xlink="http://www.w3.org/1999/xlink" x="0px" y="0px"
	 width="34.083px" height="33.417px" viewBox="0 0 34.083 33.417" enable-background="new 0 0 34.083 33.417" xml:space="preserve">
<g id="圖層_1_1_" display="none">
	<g display="inline">
		<path fill="none" stroke="#231815" stroke-width="0.5118" stroke-miterlimit="10" d="M31.071,30.796
			c0,1.072-0.969,1.939-2.16,1.939H9.063c-1.193,0-2.16-0.867-2.16-1.939V2.7c0-1.07,0.967-1.939,2.16-1.939h19.848
			c1.191,0,2.16,0.869,2.16,1.939V30.796z"/>
		<path fill="none" stroke="#3E3A39" stroke-width="1.3782" stroke-linejoin="round" stroke-miterlimit="10" d="M28.911,0.76H9.064
			c-1.194,0-2.161,0.869-2.161,1.939v23.019l-3.711,0.748c0,0,0.043-0.006-0.151,0.043c-0.037,0.008,0.003,0.037-0.001,0.189
			c-0.03,1.122-0.804,2.254,3.863,2.254v1.844c0,1.072,0.967,1.939,2.161,1.939h19.847c1.193,0,2.16-0.867,2.16-1.939V2.7
			C31.071,1.629,30.104,0.76,28.911,0.76z"/>
		<path fill="#FFFFFF" stroke="#3E3A39" stroke-width="0.6891" stroke-miterlimit="10" d="M3.113,26.544
			c-0.037,0.01,0.003,0.033-0.001,0.172c-0.03,1.017-0.805,2.041,3.871,2.041c4.755,0,20.241-1.84,23.518-2.381
			c0.444-0.074,0.681,0.043,0.691-0.114c0.016-0.202-0.332-0.103-0.838-0.28c-1.553-0.552-1.532-2.211-1.707-3.68
			c-0.009-0.078-0.044-0.196-0.135-0.27c-0.156-0.125-0.229-0.099-0.229-0.099l-25.02,4.573C3.264,26.507,3.307,26.501,3.113,26.544
			z"/>
		<g>
			<rect x="16.615" y="3.273" fill="#3E3A39" width="4.418" height="0.672"/>
		</g>
		<g>
			<rect x="18.529" y="3.609" fill="#3E3A39" width="0.593" height="17.514"/>
		</g>
		<g>
			<rect x="16.615" y="20.789" fill="#3E3A39" width="4.418" height="0.672"/>
		</g>
		<polygon fill="#3E3A39" points="17.639,5.664 18.825,3.609 20.011,5.664 		"/>
		<polygon fill="#3E3A39" points="20.011,19.069 18.827,21.123 17.639,19.069 		"/>
	</g>
</g>
<g id="圖層_2" display="none">
	<g display="inline">
		
			<path fill="#FFFFFF" stroke="#3E3A39" stroke-width="0.9506" stroke-linecap="round" stroke-linejoin="round" stroke-miterlimit="10" d="
			M23.605,0.896c-1.354,0-2.858,0.183-4.024,0.772l0,0c-0.537-0.29-1.039-0.394-1.426-0.493c-0.614-0.16-1.563-0.459-2.726-0.129
			c-2.285,0.65-4.884,1.821-4.884,1.821C8.747,3.585,7.176,4.34,6.696,6.142L1.682,25.061c-0.478,1.804,0.498,3.646,2.176,4.122
			l12.789,3.623c1.678,0.475,3.426-0.6,3.902-2.402l5.015-18.917c0.479-1.801-0.103-2.768-1.315-4.463c0,0-0.959-1.515-2.49-3.272
			L21.42,3.356c0.902-0.363,1.371-0.579,2.187-0.579c3.774,0,6.849,3.176,6.849,7.081c0,3.43-1.607,6.007-4.867,6.618
			c-0.496,0.091-0.822,0.579-0.735,1.09c0.081,0.452,0.463,0.771,0.896,0.771c0.055,0,0.105-0.004,0.162-0.018
			c4.125-0.77,6.363-4.125,6.363-8.462C32.271,4.916,28.385,0.896,23.605,0.896z"/>
		<path fill="none" stroke="#3E3A39" stroke-width="0.408" stroke-linecap="round" stroke-miterlimit="10" d="M21.346,3.268
			c1.531,1.759,2.902,3.755,2.902,3.755c1.213,1.696,1.795,2.662,1.313,4.463l-5.013,18.918c-0.477,1.805-2.227,2.877-3.902,2.402
			l-12.79-3.623c-1.678-0.479-2.653-2.318-2.176-4.122L6.696,6.142c0.48-1.801,2.05-2.557,3.848-3.274c0,0,2.601-1.17,4.885-1.821
			c1.162-0.33,2.112-0.031,2.727,0.129c0.388,0.1,0.998,0.26,1.535,0.55"/>
		<path fill="none" stroke="#3E3A39" stroke-width="0.2468" stroke-miterlimit="10" d="M18.431,28.519
			c-0.318,1.195-1.584,1.878-2.829,1.527l-9.484-2.688c-1.247-0.353-1.998-1.61-1.68-2.803l3.633-13.71
			c0.316-1.196,1.583-1.88,2.828-1.527l9.484,2.687c1.244,0.352,1.998,1.607,1.679,2.804L18.431,28.519z"/>
		<path fill="none" stroke="#3E3A39" stroke-width="0.298" stroke-linecap="round" stroke-miterlimit="10" d="M19.23,4.984
			c0.237,0.514,0.181,1.032,0.04,1.501c-0.375,1.248-1.659,1.946-2.866,1.557c-1.206-0.386-1.881-1.712-1.507-2.959
			c0.328-1.088,1.385-1.859,2.554-1.642"/>
		<g>
			<path fill="none" stroke="#3E3A39" stroke-width="0.713" stroke-miterlimit="10" d="M25.745,18.335
				c-0.433,0-0.813-0.32-0.895-0.772c-0.087-0.512,0.238-1,0.734-1.09c3.26-0.611,4.867-3.188,4.867-6.618
				c0-3.904-3.072-7.081-6.848-7.081c-2.404,0-4.587,1.266-5.85,3.387c-0.258,0.442-0.818,0.584-1.248,0.31
				c-0.428-0.27-0.561-0.848-0.3-1.29c1.59-2.684,4.356-4.285,7.397-4.285c4.777,0,8.664,4.019,8.664,8.959
				c0,4.338-2.238,7.693-6.364,8.462C25.851,18.332,25.799,18.335,25.745,18.335z"/>
		</g>
	</g>
</g>
<rect x="1.146" y="7" fill="none" width="31.801" height="23.625"/>
<path fill="none" stroke="#FFFFFF" stroke-width="1.1416" stroke-linecap="round" stroke-miterlimit="10" d="M33.379,29.628
	c0,0.688-0.478,1.244-1.065,1.244H1.853c-0.589,0-1.066-0.557-1.066-1.244V5.379c0-0.688,0.478-1.243,1.066-1.243h30.461
	c0.589,0,1.065,0.556,1.065,1.243V29.628z"/>
<line fill="none" stroke="#FFFFFF" stroke-width="0.5507" stroke-linecap="round" stroke-miterlimit="10" x1="0.786" y1="7" x2="32.946" y2="7"/>
<circle fill="none" stroke="#FFFFFF" stroke-width="0.1135" stroke-linecap="round" stroke-miterlimit="10" cx="2.744" cy="5.731" r="0.454"/>
<circle fill="none" stroke="#FFFFFF" stroke-width="0.1135" stroke-linecap="round" stroke-miterlimit="10" cx="4.098" cy="5.731" r="0.454"/>
<circle fill="none" stroke="#FFFFFF" stroke-width="0.1135" stroke-linecap="round" stroke-miterlimit="10" cx="5.452" cy="5.731" r="0.454"/>
<polygon fill="none" stroke="#FFFFFF" stroke-width="0.9123" stroke-linecap="round" stroke-linejoin="round" stroke-miterlimit="10" points="
	21.696,14.393 17.196,22.186 14.218,17.027 8.262,27.343 14.218,27.343 20.174,27.343 29.17,27.343 "/>
<circle fill="none" stroke="#FFFFFF" stroke-width="0.9123" stroke-linecap="round" stroke-linejoin="round" stroke-miterlimit="10" cx="8.313" cy="13.919" r="2.407"/>
<g id="圖層_4" display="none">
	<g display="inline">
		<g>
			<path fill="#FFFFFF" stroke="#3E3A39" stroke-miterlimit="10" d="M25.208,3.085H6.827c-1.515,0-2.743,1.228-2.743,2.742V28
				c0,1.517,1.228,2.742,2.743,2.742h22.171c1.516,0,2.74-1.227,2.74-2.742V8.493"/>
			<path fill="#DCDDDD" stroke="#3E3A39" stroke-linecap="round" stroke-linejoin="round" stroke-miterlimit="10" d="M25.208,3.085
				c0,0-1.234,5.571,0.217,5.553c4.221-0.053,2.639,0.069,6.314-0.145L25.208,3.085z"/>
		</g>
		<g>
			
				<path fill="#F7F8F8" stroke="#3E3A39" stroke-width="0.8711" stroke-linecap="round" stroke-linejoin="round" stroke-miterlimit="10" d="
				M33.363,32.023c0,0.521-0.425,0.945-0.946,0.945H18.206c-0.522,0-0.947-0.424-0.947-0.945v-4.736
				c0-0.523,0.424-0.947,0.947-0.947h14.211c0.521,0,0.946,0.424,0.946,0.947V32.023z"/>
			<g>
				
					<line fill="none" stroke="#3E3A39" stroke-width="0.4289" stroke-linecap="round" stroke-linejoin="round" stroke-miterlimit="10" x1="8.148" y1="9.074" x2="18.883" y2="9.074"/>
				
					<line fill="none" stroke="#3E3A39" stroke-width="0.4289" stroke-linecap="round" stroke-linejoin="round" stroke-miterlimit="10" x1="8.148" y1="11.034" x2="18.883" y2="11.034"/>
				
					<line fill="none" stroke="#3E3A39" stroke-width="0.4289" stroke-linecap="round" stroke-linejoin="round" stroke-miterlimit="10" x1="8.148" y1="12.994" x2="18.883" y2="12.994"/>
				
					<line fill="none" stroke="#3E3A39" stroke-width="0.5111" stroke-linecap="round" stroke-linejoin="round" stroke-miterlimit="10" x1="8.148" y1="14.954" x2="23.392" y2="14.954"/>
				
					<line fill="none" stroke="#3E3A39" stroke-width="0.5111" stroke-linecap="round" stroke-linejoin="round" stroke-miterlimit="10" x1="8.148" y1="16.914" x2="23.392" y2="16.914"/>
				
					<line fill="none" stroke="#3E3A39" stroke-width="0.5111" stroke-linecap="round" stroke-linejoin="round" stroke-miterlimit="10" x1="8.148" y1="18.946" x2="23.392" y2="18.946"/>
			</g>
			<g>
				
					<polyline fill="none" stroke="#3E3A39" stroke-width="0.6815" stroke-linecap="round" stroke-linejoin="round" stroke-miterlimit="10" points="
					21.981,27.824 20.106,29.562 22.027,31.484 				"/>
				
					<polyline fill="none" stroke="#3E3A39" stroke-width="0.6815" stroke-linecap="round" stroke-linejoin="round" stroke-miterlimit="10" points="
					28.639,31.484 30.515,29.746 28.594,27.824 				"/>
				
					<line fill="none" stroke="#3E3A39" stroke-width="0.6815" stroke-linecap="round" stroke-linejoin="round" stroke-miterlimit="10" x1="27.124" y1="27.841" x2="23.499" y2="31.464"/>
			</g>
		</g>
	</g>
</g>
</svg>
